<?xml version="1.0" encoding="utf-8"?>
<svg viewBox="0 0 500 500" xmlns="http://www.w3.org/2000/svg">
  <path d="M 248.252 28.023 C 75.628 28.023 -29.5 224.83 56.812 374.541 C 143.124 524.252 356.14 514.584 442.452 364.873 C 462.133 330.734 472.495 292.009 472.495 252.59 C 472.359 128.621 372.042 28.159 248.252 28.023 Z M 251.704 456.794 C 95.317 460.909 2.323 292.033 80.543 156.358 C 158.763 20.682 328.76 21.372 415.959 155.667 C 435.407 185.619 447.446 244.881 441.112 291.264 C 433.291 348.535 361.811 453.897 251.704 456.794 Z" style="fill: rgb(247, 5, 5);"/>
  <path d="M 346.087 151.043 C 341.983 146.766 329.12 143.313 325.016 147.59 L 246.871 233.057 L 163.924 145.285 C 158.193 139.302 147.024 142.127 140.092 150.299 C 137.559 153.285 140.158 163.809 142.818 166.587 L 225.108 254.359 L 142.818 338.531 C 137.099 344.515 140.782 352.411 147.553 356.892 C 153.255 360.665 157.127 366.174 159.781 363.397 L 245.49 275.486 L 325.016 354.075 C 330.748 360.059 337.376 357.896 343.323 351.91 C 351.894 343.284 346.712 334.111 344.051 331.333 L 266.56 252.2 L 348.194 168.026 C 352.214 163.746 350.127 155.304 346.087 151.043 Z" style="fill: rgb(246, 10, 10);"/>
</svg>