<?xml version="1.0" encoding="utf-8"?>
<svg viewBox="0 0 500 500" xmlns="http://www.w3.org/2000/svg" xmlns:bx="https://boxy-svg.com">
  <g transform="matrix(0.950093, 0, 0, 0.950093, 8.157468, 10.747239)" style="">
    <g>
      <linearGradient gradientUnits="userSpaceOnUse" id="SVGID_1_" x1="-0.0000027" x2="512" y1="256" y2="256">
        <stop offset="0" style="stop-color:#00AEEE"/>
        <stop offset="1" style="stop-color:#0095DA"/>
      </linearGradient>
      <circle cx="256" cy="256" fill="url(#SVGID_1_)" r="256"/>
      <linearGradient gradientUnits="userSpaceOnUse" id="SVGID_2_" x1="42.6666641" x2="469.3333435" y1="256.0005188" y2="256.0005188" gradientTransform="matrix(1, 0, 0, 1, 0, -2.105057)">
        <stop offset="0" style="stop-color:#0095DA"/>
        <stop offset="1" style="stop-color:#00AEEE"/>
      </linearGradient>
      <path d="M 256 467.228 C 138.369 467.228 42.667 371.526 42.667 253.895 C 42.667 136.264 138.369 40.562 256 40.562 C 373.636 40.562 469.333 136.264 469.333 253.895 C 469.333 371.526 373.636 467.228 256 467.228 Z" fill="url(#SVGID_2_)"/>
    </g>
    <g transform="matrix(1, 0, 0, 1, 0, -57.889061)">
      <path d="M 318.624 168.512 L 290.976 168.512 C 288.672 155.744 277.488 146 264 146 C 250.56 146 239.376 155.744 237.072 168.512 L 209.424 168.512 L 209.424 217.184 L 318.624 217.184 L 318.624 168.512 Z" opacity="0.3"/>
      <rect height="23.6016006" opacity="0.3" width="23.6021328" x="201.6020508" y="321.3754578"/>
      <rect height="23.6016006" opacity="0.3" width="23.6021328" x="201.6020508" y="254.4752045"/>
      <path d="M 328.223 187.712 L 328.223 226.782 L 199.823 226.782 L 199.823 187.712 L 170.064 187.712 L 170.064 386 L 357.936 386 L 357.936 187.712 L 328.223 187.712 Z M 249.002 253.577 L 292.603 253.577 L 292.603 263.177 L 249.002 263.177 L 249.002 253.577 Z M 249.002 320.476 L 292.603 299.476 L 292.603 330.076 L 249.002 330.076 L 249.002 320.476 Z M 234.804 356.577 L 192.002 335.577 L 192.002 292.775 L 234.804 313.775 L 234.804 356.577 Z M 234.804 289.677 L 192.002 268.677 L 192.002 225.875 L 234.804 246.875 L 234.804 289.677 Z M 331.202 349.876 L 249.002 328.876 L 249.002 319.276 L 331.202 340.276 L 331.202 349.876 Z M 331.202 282.977 L 249.002 261.977 L 249.002 252.377 L 331.202 273.377 L 331.202 282.977 Z" opacity="0.3"/>
    </g>
    <g transform="matrix(1, 0, 0, 1, 0, -32.62838)">
      <path d="M 310.624 149.512 L 282.976 149.512 C 280.672 136.744 269.488 127 256 127 C 242.56 127 231.376 136.744 229.072 149.512 L 201.424 149.512 L 201.424 198.184 L 310.624 198.184 L 310.624 149.512 Z" fill="#FFFFFF"/>
      <rect fill="#FFFFFF" height="23.6016006" width="23.6021328" x="193.6020508" y="313.3754578"/>
      <rect fill="#FFFFFF" height="23.6016006" width="23.6021328" x="193.6020508" y="246.4752045"/>
      <path d="M 320.223 168.712 L 320.223 207.782 L 191.823 207.782 L 191.823 168.712 L 162.064 168.712 L 162.064 367 L 349.936 367 L 349.936 168.712 L 320.223 168.712 Z M 241.002 234.577 L 284.603 234.577 L 284.603 244.177 L 241.002 244.177 L 241.002 234.577 Z M 241.002 301.476 L 284.603 301.476 L 284.603 311.076 L 241.002 311.076 L 241.002 301.476 Z M 226.804 337.577 L 184.002 337.577 L 184.002 294.775 L 226.804 294.775 L 226.804 337.577 Z M 226.804 270.677 L 184.002 270.677 L 184.002 227.875 L 226.804 227.875 L 226.804 270.677 Z M 323.202 330.876 L 241.002 330.876 L 241.002 321.276 L 323.202 321.276 L 323.202 330.876 Z M 323.202 263.977 L 241.002 263.977 L 241.002 254.377 L 323.202 254.377 L 323.202 263.977 Z" fill="#FFFFFF"/>
    </g>
    <text style="fill: rgb(255, 255, 255); font-family: Arial, sans-serif; font-size: 25.4px; font-weight: 700; letter-spacing: -0.4px; word-spacing: 1.1px; white-space: pre;" transform="matrix(1.058786, 0, 0, 1.19366, -28.34004, -78.284706)" x="177.712" y="384.427" bx:origin="0.538458 0.5">Todos Kampus</text>
  </g>
  <g data-name="Layer 28" id="Layer_28" transform="matrix(10.661902, 0, 0, 11.172393, 106.180193, 47.876214)" style="">
    <path class="cls-1" d="M 9.004 22 C 8.956 22 8.912 21.97 8.879 21.918 L 8.169 20.809 C 8.086 20.656 8.166 20.375 8.295 20.345 C 8.347 20.332 8.412 20.488 8.45 20.542 L 9.004 21.371 L 10.467 19.024 C 10.55 18.872 10.711 18.91 10.758 19.094 C 10.783 19.19 10.766 19.3 10.716 19.371 L 9.128 21.918 C 9.096 21.97 9.051 22 9.004 22 Z" style="fill: rgb(50, 240, 75);"/>
  </g>
  <path d="M 230.45 194.02 C 229.631 193.228 227.067 192.587 226.248 193.382 L 210.664 209.221 L 194.125 192.955 C 192.981 191.845 190.753 192.368 189.371 193.884 C 188.866 194.437 189.384 196.387 189.914 196.902 L 206.326 213.169 L 189.914 228.77 C 188.775 229.878 189.509 231.34 190.859 232.171 C 191.997 232.871 192.769 233.891 193.298 233.377 L 210.39 217.085 L 226.248 231.649 C 227.392 232.757 228.712 232.356 229.901 231.248 C 231.609 229.65 230.576 227.95 230.045 227.434 L 214.591 212.769 L 230.871 197.168 C 231.673 196.377 231.257 194.809 230.45 194.02 Z" style="fill: rgb(255, 28, 28);"/>
  <ellipse style="stroke: rgb(0, 0, 0); fill-rule: evenodd; fill: rgb(85, 149, 218);" cx="250.218" cy="127.139" rx="12.511" ry="12.761"/>
</svg>