<?xml version="1.0" encoding="utf-8"?>
<svg viewBox="0 0 500 500" xmlns="http://www.w3.org/2000/svg">
  <g transform="matrix(3.492645, 0, 0, 3.379359, 24.744183, 31.476515)" style="">
    <g>
      <path d="M 126.314 104.844 L 78.313 8.844 C 75.603 3.422 70.063 0 64 0 C 57.937 0 52.398 3.422 49.687 8.844 L 1.686 104.844 C -0.791 109.805 -0.525 115.696 2.389 120.414 C 5.303 125.125 10.452 128 15.999 128 L 112.001 128 C 117.548 128 122.696 125.125 125.611 120.414 C 128.525 115.695 128.791 109.805 126.314 104.844 Z M 118.806 116.203 C 117.361 118.547 114.751 120 112.001 120 L 15.999 120 C 13.249 120 10.639 118.547 9.194 116.211 C 7.725 113.828 7.592 110.922 8.842 108.422 L 56.843 12.422 C 58.203 9.695 60.945 8 64 8 C 67.055 8 69.797 9.695 71.156 12.422 L 119.157 108.414 C 120.407 110.922 120.274 113.828 118.806 116.203 Z M 64 32 C 59.585 32 56 35.586 56 40 L 58.175 80.613 C 58.175 85.027 59.586 88 64 88 C 68.414 88 69.232 85.232 69.232 80.818 L 72 40 C 72 35.586 68.414 32 64 32 Z M 64 96 C 59.585 96 56 99.586 56 104 C 56 108.414 59.586 112 64 112 C 68.414 112 72 108.414 72 104 C 72 99.586 68.414 96 64 96 Z" style="fill: rgb(231, 185, 58);"/>
    </g>
  </g>
</svg>