<?xml version="1.0" encoding="utf-8"?>
<svg viewBox="0 0 500 500" xmlns="http://www.w3.org/2000/svg">
  <g data-name="Layer 28" id="Layer_28" transform="matrix(14.720074, 0, 0, 14.996316, 12.752348, 12.994029)" style="">
    <path class="cls-1" d="M16,31A15,15,0,1,1,31,16,15,15,0,0,1,16,31ZM16,3A13,13,0,1,0,29,16,13,13,0,0,0,16,3Z" style="fill: rgb(23, 168, 74);"/>
    <path class="cls-1" d="M13.67,22a1,1,0,0,1-.73-.32l-4.67-5a1,1,0,0,1,1.46-1.36l3.94,4.21,8.6-9.21a1,1,0,1,1,1.46,1.36l-9.33,10A1,1,0,0,1,13.67,22Z" style="fill: rgb(23, 168, 74);"/>
  </g>
</svg>